<?xml version="1.0" encoding="utf-8"?>
<!-- Generator: Adobe Illustrator 23.0.1, SVG Export Plug-In . SVG Version: 6.00 Build 0)  -->
<svg version="1.1" xmlns="http://www.w3.org/2000/svg" xmlns:xlink="http://www.w3.org/1999/xlink" x="0px" y="0px"
	 viewBox="0 0 888 155" style="enable-background:new 0 0 888 155;" xml:space="preserve">
<style type="text/css">
	.st0{fill:#7ECBFD;}
	.st1{fill:#FFFFFF;}
	.st2{fill:#CDE3FE;}
</style>
<g id="Layer_3">
	<path class="st0" d="M54,94v26c0,0,0,4-5,7S8,152,8,152s-7,5-7-1s0-26,0-26s0-3,3-5s46-28,46-28l5,1L54,94z"/>
	<path class="st0" d="M54,61V35c0,0,0-4,5-7s41-25,41-25s7-5,7,1s0,26,0,26s0,3-3,5S58,63,58,63l-5-1L54,61z"/>
	<path class="st0" d="M1,57c0,0,0,6,5,9s96,58,96,58s5,3,5-2s0-24,0-24s0-6-5-9S7,32,7,32s-6-4-6,2S1,57,1,57z"/>
</g>
<g id="Layer_4">
	<path class="st1" d="M166.2,96.6c2.6,2,5.2,3.5,7.9,4.5c2.7,1,5.4,1.6,8,1.6c3.4,0,6-0.8,7.9-2.3c1.9-1.5,2.9-3.6,2.9-6.3
		c0-2.3-0.8-4.3-2.3-6c-1.5-1.7-3.6-3.1-6.3-4.4c-2.7-1.2-5.8-2.5-9.4-3.8c-3.6-1.4-7.2-3.1-10.7-5c-3.6-1.9-6.5-4.5-8.7-7.6
		c-2.3-3.1-3.4-7.1-3.4-11.9c0-4.9,1.2-9,3.8-12.2c2.5-3.3,5.9-5.7,10.1-7.2c4.2-1.6,8.8-2.4,13.7-2.4c4.4,0,8.6,0.6,12.5,1.9
		c3.9,1.3,7.4,3,10.6,5.1c3.1,2.1,5.8,4.5,8,7.2L200.3,59c-2.6-3.1-5.7-5.7-9.4-7.7c-3.7-2-7.6-3-11.5-3c-2.8,0-5.1,0.6-6.8,1.7
		c-1.7,1.2-2.6,2.9-2.6,5.1c0,1.9,0.8,3.5,2.4,5c1.6,1.5,3.7,2.8,6.3,3.9c2.6,1.2,5.6,2.4,8.8,3.7c4.5,1.7,8.7,3.7,12.4,5.8
		c3.7,2.1,6.7,4.7,8.9,7.7c2.2,3,3.3,7,3.3,11.9c0,7.6-2.6,13.7-7.8,18.3c-5.2,4.6-12.1,6.9-20.9,6.9c-5.6,0-10.7-0.8-15.2-2.5
		c-4.5-1.7-8.6-3.9-12.1-6.6c-3.5-2.7-6.4-5.6-8.7-8.6l11-11.2C161,92.2,163.7,94.6,166.2,96.6z"/>
	<path class="st1" d="M221.1,52.7c3.6-6.2,8.4-11,14.4-14.4c6-3.4,12.4-5.1,19.3-5.1c6.9,0,12.8,1.7,17.8,5.2
		c5,3.5,8.9,8.4,11.7,14.7c2.8,6.3,4.2,13.8,4.2,22.5c0,8.6-1.4,16.1-4.2,22.4c-2.8,6.3-6.7,11.2-11.7,14.7
		c-5,3.4-10.9,5.2-17.8,5.2c-6.9,0-13.3-1.7-19.3-5c-6-3.3-10.8-8.1-14.4-14.5c-3.6-6.3-5.4-13.9-5.4-22.8
		C215.7,66.5,217.5,58.9,221.1,52.7z M238.5,89.2c2.2,3.7,5.2,6.6,8.8,8.6c3.7,2,7.7,3,12,3c3.7,0,7.3-1,10.8-2.9
		c3.5-1.9,6.4-4.7,8.6-8.5c2.3-3.7,3.4-8.3,3.4-13.8c0-5.5-1.1-10.1-3.4-13.8c-2.3-3.7-5.2-6.5-8.6-8.5c-3.5-1.9-7.1-2.9-10.8-2.9
		c-4.3,0-8.3,1-12,2.9c-3.7,1.9-6.6,4.8-8.8,8.6c-2.2,3.8-3.3,8.4-3.3,13.7C235.2,81,236.3,85.5,238.5,89.2z M282.2,35.5h19v118.8
		h-19V35.5z"/>
	<path class="st1" d="M340.7,97.6c2.4,3.1,6.2,4.7,11.4,4.7c3.5,0,6.6-0.8,9.3-2.3c2.7-1.5,4.8-3.6,6.3-6.3c1.5-2.7,2.3-5.8,2.3-9.4
		V35.5h18.9v80.3h-18.9v-12.4c-2.6,4.7-5.9,8.2-9.9,10.6c-4,2.4-8.8,3.6-14.4,3.6c-9,0-15.9-2.8-20.7-8.4
		c-4.8-5.6-7.2-13.2-7.2-22.7v-51H337v48.9C337,90.1,338.3,94.5,340.7,97.6z"/>
	<path class="st1" d="M419.6,97.7c1.3,1.9,3.1,3.3,5.3,4.3c2.3,0.9,4.9,1.4,7.8,1.4c3.8,0,7.3-0.8,10.4-2.4c3.1-1.6,5.6-3.8,7.4-6.7
		c1.9-2.9,2.8-6.4,2.8-10.5l2.8,10.5c0,5.1-1.5,9.4-4.5,12.9c-3,3.5-6.7,6.1-11.2,7.8c-4.5,1.7-9.1,2.5-13.7,2.5c-5,0-9.7-1-14-3
		c-4.3-2-7.7-4.9-10.3-8.7c-2.6-3.8-3.8-8.5-3.8-14c0-7.8,2.7-14,8.2-18.6c5.5-4.6,13.2-6.9,23.2-6.9c5.4,0,10,0.6,13.9,1.7
		c3.9,1.2,7.1,2.5,9.7,4.1c2.6,1.6,4.4,3,5.4,4.3v9.6c-3.6-2.6-7.5-4.4-11.5-5.6c-4.1-1.2-8.4-1.7-12.9-1.7c-4,0-7.2,0.5-9.6,1.5
		c-2.4,1-4.3,2.4-5.5,4.1c-1.2,1.7-1.8,3.9-1.8,6.5C417.7,93.5,418.4,95.8,419.6,97.7z M404.1,43.1c3.7-2.2,8.4-4.4,14.1-6.5
		c5.7-2.1,12.3-3.1,19.9-3.1c6.5,0,12.3,1,17.5,2.9c5.1,1.9,9.1,4.7,12,8.5c2.9,3.7,4.3,8.3,4.3,13.6v57.3h-18.5V62.2
		c0-2.6-0.4-4.7-1.2-6.3c-0.8-1.6-2-3-3.6-4c-1.6-1-3.4-1.8-5.5-2.3c-2.1-0.5-4.4-0.7-6.8-0.7c-3.7,0-7.2,0.4-10.6,1.3
		c-3.3,0.9-6.1,1.9-8.5,3.1c-2.3,1.2-4.1,2.2-5.4,3.1L404.1,43.1z"/>
	<path class="st1" d="M505.6,115.8h-18.7V35.5h18.7V115.8z M524.7,52.4c-1.6-0.7-3.5-1-5.9-1c-3.1,0-5.7,0.8-7.7,2.4
		c-2,1.6-3.4,3.9-4.3,6.7c-0.9,2.9-1.3,6.2-1.3,10l-6.3-3.7c0-6.4,1.2-12.1,3.6-17c2.4-4.9,5.5-8.9,9.3-11.9c3.8-3,7.7-4.5,11.8-4.5
		c2.9,0,5.6,0.5,8.2,1.4c2.6,0.9,4.8,2.5,6.6,4.7l-9.3,15.9C527.9,54.1,526.3,53.1,524.7,52.4z"/>
	<path class="st1" d="M555.4,112.3c-6.2-3.5-11-8.4-14.4-14.7c-3.4-6.3-5.1-13.6-5.1-22c0-8.5,1.7-15.9,5.2-22.2
		c3.4-6.3,8.3-11.1,14.6-14.6c6.3-3.4,13.7-5.2,22.2-5.2c8.5,0,15.7,1.6,21.7,4.9c6,3.3,10.6,7.9,13.7,14.1s4.7,13.5,4.7,22.1
		c0,0.9,0,1.9-0.1,3c-0.1,1-0.1,1.8-0.1,2.3h-70.6V66.9h54.3l-5.8,8c0.3-0.7,0.7-1.6,1.1-2.8c0.4-1.2,0.6-2.2,0.6-3
		c0-4.3-0.8-8-2.5-11.2c-1.7-3.1-4-5.6-7-7.3c-3-1.7-6.4-2.6-10.4-2.6c-4.8,0-8.8,1-12.1,3.1c-3.3,2.1-5.9,5.1-7.7,9.1
		c-1.8,4-2.7,8.8-2.7,14.7c-0.1,5.7,0.7,10.6,2.5,14.7c1.8,4.1,4.4,7.2,7.8,9.3c3.4,2.1,7.5,3.1,12.4,3.1c5.2,0,9.8-1,13.6-3.1
		c3.8-2.1,7-5.3,9.4-9.6l16.4,6.5c-4.3,7.2-9.8,12.7-16.4,16.3s-14.6,5.5-23.9,5.5C568.8,117.5,561.7,115.8,555.4,112.3z"/>
	<path class="st2" d="M635.2,75.8c0-12.5,3.7-22.6,11-30.3c7.4-7.7,17.1-11.5,29.2-11.5s21.9,3.8,29.3,11.5
		c7.4,7.7,11.1,17.8,11.1,30.3c0,12.5-3.7,22.6-11.1,30.3c-7.4,7.7-17.2,11.5-29.3,11.5s-21.9-3.8-29.2-11.5
		C638.9,98.4,635.2,88.3,635.2,75.8z M657.4,97.3c5.2,4.8,11.3,7.2,18.2,7.2c6.9,0,13-2.4,18.2-7.2c5.2-4.8,7.8-12,7.8-21.6
		s-2.6-16.8-7.8-21.5c-5.2-4.7-11.3-7.1-18.2-7.1c-6.9,0-13,2.4-18.2,7.1c-5.2,4.7-7.8,11.9-7.8,21.5S652.2,92.5,657.4,97.3z"/>
	<path class="st2" d="M771.7,34c8.7,0,15.6,2.9,20.6,8.8c5,5.9,7.6,13.2,7.6,22.1V116h-14.3V66.5c0-12.8-5.8-19.2-17.3-19.2
		c-9.1,0-17.8,5-25.8,15.1V116h-14.3V35.6h12.6l1.7,10.1V48h0.3C751.2,38.7,760.9,34,771.7,34z"/>
	<path class="st2" d="M886.8,75.8v5h-60.8c0.8,7.4,3.6,13.1,8.2,17.2c4.6,4.1,11.6,6.1,21,6.1c9.4,0,18.1-2.6,26.1-7.9h0.8v13.9
		c-8.8,4.9-19.2,7.4-31.1,7.4c-11.9,0-21.5-3.6-28.7-11c-7.2-7.3-10.8-17.2-10.8-29.6c0-12.5,3.2-22.7,9.6-30.8
		c6.4-8.1,15.8-12.1,28.1-12.1c12.3,0,21.6,4,28.1,12.1C883.6,54.2,886.8,64.1,886.8,75.8z M825.9,69.2h46.5
		c-0.4-7.6-3-13.3-7.6-17.2c-4.7-3.9-9.9-5.8-15.7-5.8c-5.8,0-11,1.9-15.6,5.8C828.9,55.9,826.4,61.6,825.9,69.2z"/>
</g>
</svg>
