<?xml version="1.0" encoding="utf-8"?>

<svg version="1.1" id="Layer_3" xmlns="http://www.w3.org/2000/svg" xmlns:xlink="http://www.w3.org/1999/xlink" x="0px" y="0px"
	 viewBox="0 0 108 155" style="enable-background:new 0 0 108 155;" xml:space="preserve">
<style type="text/css">
	.st0{fill:#7ECBFD;}
</style>
<path class="st0" d="M54,94v26c0,0,0,4-5,7S8,152,8,152s-7,5-7-1s0-26,0-26s0-3,3-5s46-28,46-28l5,1L54,94z"/>
<path class="st0" d="M54,61V35c0,0,0-4,5-7s41-25,41-25s7-5,7,1s0,26,0,26s0,3-3,5S58,63,58,63l-5-1L54,61z"/>
<path class="st0" d="M1,57c0,0,0,6,5,9s96,58,96,58s5,3,5-2s0-24,0-24s0-6-5-9S7,32,7,32s-6-4-6,2S1,57,1,57z"/>
</svg>
